<svg width="30" height="30" viewBox="0 0 48 48" fill="none" xmlns="http://www.w3.org/2000/svg">
<path d="M37.3817 19.6177C37.0663 19.3682 36.6554 19.2433 36.2393 19.2705C35.8232 19.2978 35.436 19.4749 35.1628 19.763L28.9547 26.3117L27.6587 24.9292C27.5246 24.785 27.3605 24.6664 27.1761 24.5802C26.9916 24.4941 26.7904 24.4421 26.5839 24.4271C26.3773 24.4122 26.1696 24.4347 25.9727 24.4933C25.7757 24.5519 25.5933 24.6455 25.436 24.7686C25.2787 24.8918 25.1495 25.0421 25.056 25.211C24.9624 25.3799 24.9062 25.564 24.8907 25.7528C24.8751 25.9415 24.9005 26.1312 24.9654 26.311C25.0303 26.4908 25.1334 26.6571 25.2688 26.8004L27.753 29.4498C27.9003 29.6068 28.0829 29.7329 28.2883 29.8195C28.4938 29.9062 28.7172 29.9514 28.9435 29.952H28.948C29.1735 29.9519 29.3965 29.9075 29.6016 29.8218C29.8067 29.7361 29.9892 29.611 30.1368 29.4551L37.5408 21.6449C37.6761 21.5023 37.7792 21.3367 37.8444 21.1576C37.9096 20.9785 37.9356 20.7895 37.9208 20.6012C37.906 20.413 37.8508 20.2292 37.7583 20.0605C37.6658 19.8917 37.5378 19.7413 37.3817 19.6177Z" fill="white"/>
<path d="M51.1348 15.1613C51.1 14.205 50.7026 13.2894 50.0105 12.5713C49.3183 11.8533 48.3745 11.3775 47.3407 11.2253C41.1634 10.2112 35.2931 5.25941 32.346 2.40064C31.9207 1.98689 31.4085 1.65574 30.8399 1.42701C30.2714 1.19829 29.6582 1.07667 29.037 1.06943L29.031 1.07067L29.0246 1.06943C28.3913 1.06552 27.7639 1.18156 27.1821 1.41025C26.6004 1.63895 26.0767 1.97532 25.6443 2.39816C22.6945 5.25941 16.8243 10.2112 10.6469 11.2253C9.61365 11.3828 8.67192 11.8624 7.98179 12.5826C7.29167 13.3028 6.89573 14.2191 6.86127 15.1759C6.78177 19.3284 7.15652 23.4778 7.97994 27.5622L7.98085 27.5642C10.5425 39.9088 17.2931 48.1752 27.5068 51.4711C27.9947 51.627 28.5078 51.7063 29.0246 51.7056C29.5288 51.7062 30.0291 51.6255 30.5025 51.467C40.7129 48.0858 47.47 39.8199 50.0432 27.563V27.5616C50.8787 23.4742 51.2445 19.3182 51.1348 15.1613ZM17.634 26.235H10.2044C9.53995 22.5934 9.23964 18.904 9.30724 15.2126C9.32706 14.7726 9.51525 14.3528 9.83901 14.0264C10.1628 13.7001 10.6016 13.488 11.079 13.427C17.9478 12.2985 24.2685 6.99334 27.4272 3.92911C27.5393 3.81944 27.6649 3.72201 27.8015 3.63877V16.1418C25.0575 16.4159 22.5153 17.5896 20.6458 19.4455C18.7763 21.3013 17.7063 23.7135 17.634 26.235ZM29.022 34.0205C27.7976 34.0221 26.5883 33.7739 25.4821 33.2943C24.376 32.8146 23.4009 32.1155 22.6279 31.2478C21.8549 30.3801 21.3034 29.3658 21.0138 28.2788C20.7241 27.1917 20.7035 26.0592 20.9535 24.964C21.2034 23.8687 21.7176 22.8382 22.4586 21.9475C23.1997 21.0569 24.1488 20.3285 25.2369 19.8155C26.325 19.3025 27.5246 19.0178 28.7484 18.9821C29.9721 18.9465 31.1892 19.1607 32.3109 19.6093L33.4503 18.4073C33.8107 18.0271 34.2564 17.7221 34.7571 17.5132C35.2579 17.3043 35.802 17.1963 36.3525 17.1965C37.0882 17.1967 37.8083 17.3901 38.4271 17.7537C39.046 18.1173 39.5374 18.6357 39.843 19.2473C40.1485 19.8588 40.2553 20.5377 40.1506 21.2032C40.0459 21.8686 39.7342 22.4925 39.2525 23.0007L37.1273 25.2423C37.3358 26.3214 37.2823 27.4291 36.9704 28.4872C36.6586 29.5452 36.0962 30.5277 35.3228 31.3652C34.5495 32.2026 33.5843 32.8745 32.4953 33.3334C31.4064 33.7922 30.2211 34.0268 29.022 34.0205ZM30.2477 49.1658V36.8565C32.6706 36.6132 34.9449 35.6681 36.738 34.1592C38.5311 32.6504 39.7489 30.6569 40.2135 28.4704H47.3398C45.4866 36.0933 41.0032 45.3329 30.2477 49.1658Z" fill="white"/>
</svg>
