<svg width="30" height="30" viewBox="0 0 48 48" fill="none" xmlns="http://www.w3.org/2000/svg">
<path d="M19.9113 24.2574H16.2009V34.9546H19.9113V24.2574Z" fill="white"/>
<path d="M26.8781 24.2574H23.1885V34.9546H26.8781V24.2574Z" fill="white"/>
<path d="M0 9.9375V43.0625H50V33.0565V28.4323V9.9375H0ZM37.4354 34.9535C38.2812 34.9535 38.9656 35.68 38.9656 36.5755C38.9656 37.471 38.2812 38.1975 37.4354 38.1975H12.5646C11.7188 38.1975 11.0344 37.471 11.0344 36.5755C11.0344 35.68 11.7188 34.9535 12.5646 34.9535H12.9667V24.2563H12.5646C11.7188 24.2563 11.0344 23.5298 11.0344 22.6343C11.0344 22.2059 11.1937 21.8194 11.449 21.5301C11.5354 21.433 11.6458 21.3667 11.7531 21.2939L11.7417 21.2751L11.8271 21.2364C11.8937 21.1956 11.9656 21.1691 12.0396 21.1404L13.9906 20.2581L24.901 14.8014L37.9427 21.1106C38.025 21.1415 38.1021 21.179 38.1771 21.2243L38.1802 21.2254C38.6458 21.5036 38.9646 22.027 38.9646 22.6332C38.9646 23.5287 38.2802 24.2552 37.4344 24.2552H37.0125V34.9524L37.4354 34.9535Z" fill="white"/>
<path d="M33.8438 24.2574H30.0896V34.9546H33.8438V24.2574Z" fill="white"/>
</svg>
