<svg width="30" height="30" viewBox="0 0 48 48" fill="none" xmlns="http://www.w3.org/2000/svg">
<path d="M12.3018 2.8418L12.7176 4.40998C12.7176 4.40998 13.1051 5.91259 14.2614 7.55022C15.4177 9.18784 17.4215 11.1014 20.8524 11.6811C23.7608 12.1728 26.0799 12.0329 28.2466 11.8112C29.6393 11.6684 31.2348 11.6193 32.764 11.5397V12.8173H32.7754V18.7459H6.49121V19.7098V44.1583H63.5086V18.7459H35.6807V12.7331C37.9466 12.7307 39.7398 12.9488 41.5881 13.1422C43.7975 13.3735 46.1552 13.5381 49.1304 13.0352C52.5613 12.4558 54.565 10.5381 55.7214 8.90047C56.8777 7.26285 57.2651 5.76024 57.2651 5.76024L57.681 4.19205L55.4081 4.6547C55.4081 4.6547 54.1365 4.91576 52.4287 5.11735C50.721 5.31894 48.5876 5.43134 47.1366 5.23199C44.4127 4.85782 42.2503 5.11452 40.6823 5.59952C39.1143 6.08452 38.1221 6.78819 37.6346 7.10255C36.9935 7.51614 36.399 8.03901 35.7832 8.53703C34.8347 7.68783 33.7114 6.63177 32.3482 5.75252C31.8607 5.43787 30.8685 4.73396 29.3005 4.24926C27.7324 3.76426 25.5701 3.50757 22.8462 3.88173C21.3951 4.08109 19.2618 3.9643 17.554 3.76346C15.8463 3.56187 14.5747 3.30444 14.5747 3.30444L12.3018 2.8418ZM16.335 5.58045C16.6855 5.63252 16.6401 5.63999 17.0414 5.6876C18.927 5.91001 21.2842 6.09369 23.433 5.79838C25.6262 5.49711 27.0364 5.70468 28.07 6.0238C29.1036 6.34366 29.743 6.78359 30.3202 7.1559C31.3129 7.79637 32.3172 8.73108 33.2653 9.56175C31.2814 9.63614 29.286 9.72759 27.808 9.87934C25.7497 10.0906 24.0075 10.2007 21.5645 9.78786C19.3885 9.42039 17.8687 8.0861 16.8989 6.71278C16.4824 6.12289 16.5415 6.03941 16.335 5.58045ZM53.6478 6.93071C53.4412 7.38967 53.5004 7.4767 53.0838 8.06667C52.1141 9.43999 50.5943 10.7741 48.4183 11.1417C45.9198 11.5635 44.1605 11.4356 42.0438 11.2162C40.5856 11.0637 38.5482 10.9998 36.5921 10.9336L36.9567 10.6085C37.8322 9.85712 38.8378 9.04453 39.6626 8.51251C40.2398 8.13984 40.8791 7.69589 41.9128 7.37633C42.9464 7.05646 44.3565 6.8489 46.5498 7.15091C48.6986 7.44622 51.0558 7.2664 52.9414 7.04398C53.3427 6.99935 53.2973 6.98203 53.6478 6.93071ZM35.0028 24.3873C40.8525 24.3873 45.5586 27.5381 45.5586 31.4519C45.5586 35.3657 40.8525 38.5162 35.0028 38.5162C29.1531 38.5162 24.4413 35.3657 24.4413 31.4519C24.4413 27.5381 29.1531 24.3873 35.0028 24.3873ZM12.4841 30.4726H13.9481H16.9616H18.4256V32.4158H16.9616H13.9481H12.4841V30.4726ZM51.5742 30.4726H53.0155H56.0347H57.4987V32.4158H56.0347H53.0155H51.5742V30.4726Z" fill="white"/>
<path d="M33.5273 25.9861V26.969V27.355H30.3145V32.4191H36.7345V33.5857H31.7785H30.3145V35.5364H31.7785H33.5273V35.9187V36.9016H36.4611V35.9187V35.5364H39.6683V30.4571H33.2254V29.3018H38.2043H39.6683V27.355H38.2043H36.4611V26.969V25.9861H33.5273Z" fill="white"/>
</svg>
