<svg width="60" height="51" viewBox="0 0 85 51" fill="none" xmlns="http://www.w3.org/2000/svg">
<rect x="0.5" y="0.5" width="84" height="50" rx="25" fill="#0070AD"/>
<path d="M40.754 23.3091C40.7569 22.7905 40.9572 22.287 41.3245 21.875C41.8196 21.3289 42.3843 20.8318 43.0081 20.393C43.5709 19.9782 44.0869 19.5188 44.5493 19.021C44.8401 18.6714 44.9907 18.2503 44.9786 17.821C44.9856 17.5582 44.9306 17.2969 44.8171 17.0526C44.7035 16.8084 44.5337 16.5863 44.3177 16.3996C44.1017 16.2129 43.8441 16.0655 43.5601 15.9661C43.2762 15.8667 42.9718 15.8173 42.6651 15.821C42.0529 15.8159 41.4613 16.01 41.0095 16.364C40.4832 16.7987 40.0994 17.3442 39.8965 17.946L37.3857 17.007C37.705 15.9592 38.4105 15.0276 39.3971 14.351C40.3706 13.7237 41.563 13.397 42.7806 13.424C43.7067 13.4158 44.6217 13.5979 45.4488 13.955C46.2372 14.2944 46.9031 14.8112 47.375 15.45C47.8536 16.1006 48.1016 16.8561 48.0891 17.625C48.0993 18.3176 47.8817 18.9986 47.4614 19.5901C46.93 20.2861 46.2862 20.914 45.5492 21.455C44.9865 21.8642 44.4571 22.3059 43.9648 22.777C43.6824 23.0542 43.5255 23.409 43.5226 23.777C43.5305 24.0025 43.5697 24.2264 43.6393 24.444H41.0725C40.8724 24.0897 40.7637 23.7026 40.754 23.3091ZM42.4656 30.277C42.1725 30.2833 41.881 30.2385 41.6088 30.1452C41.3366 30.0518 41.0894 29.9119 40.8823 29.734C40.6717 29.5577 40.5059 29.346 40.3953 29.1121C40.2846 28.8782 40.2316 28.6273 40.2395 28.375C40.2326 28.1209 40.286 27.8683 40.3965 27.6324C40.507 27.3966 40.6723 27.1824 40.8823 27.003C41.0875 26.822 41.3339 26.6793 41.6063 26.5836C41.8787 26.4879 42.1712 26.4414 42.4656 26.4471C42.7617 26.4416 43.056 26.4879 43.3305 26.5832C43.605 26.6784 43.8541 26.8205 44.0625 27.0009C44.2709 27.1813 44.4342 27.3961 44.5426 27.6324C44.6509 27.8686 44.7021 28.1213 44.6928 28.375C44.7006 28.6272 44.6477 28.8781 44.5373 29.1119C44.4269 29.3457 44.2614 29.5575 44.0511 29.734C43.8435 29.9119 43.5959 30.0517 43.3234 30.1451C43.0508 30.2384 42.759 30.2833 42.4656 30.277Z" fill="white"/>
<path d="M24.7197 41.717C24.4673 41.7168 24.2179 41.6691 23.9894 41.577C23.6926 41.4597 23.4414 41.2716 23.266 41.0352C23.0905 40.7988 22.9982 40.5242 23 40.244V11.572C23.0013 10.625 23.4407 9.71701 24.222 9.04736C25.0033 8.37771 26.0626 8.00106 27.1675 8H58.3068C59.4117 8.00106 60.471 8.37771 61.2523 9.04736C62.0336 9.71701 62.473 10.625 62.4743 11.572V31.988C62.4727 32.9348 62.0331 33.8425 61.2519 34.512C60.4706 35.1814 59.4115 35.558 58.3068 35.559H35.0054C34.3073 35.5592 33.6313 35.7694 33.0955 36.153L25.8153 41.373C25.5084 41.5941 25.1207 41.7158 24.7197 41.717ZM27.1675 10C26.6813 10.0005 26.2151 10.1663 25.8713 10.461C25.5275 10.7557 25.334 11.1553 25.3334 11.572V39.11L31.5986 34.619C32.5545 33.9349 33.7601 33.5598 35.0054 33.559H58.3068C58.7929 33.5588 59.2591 33.3932 59.6029 33.0986C59.9468 32.8041 60.1402 32.4046 60.1409 31.988V11.572C60.1402 11.1553 59.9468 10.7557 59.603 10.461C59.2592 10.1663 58.793 10.0005 58.3068 10H27.1675Z" fill="white"/>
<rect x="0.5" y="0.5" width="84" height="50" rx="25" stroke="#4262FF"/>
</svg>
