<svg width="56" height="58" viewBox="0 0 56 58" fill="none" xmlns="http://www.w3.org/2000/svg">
<g id="Logo 2">
<path id="Vector" d="M47.3127 29.5114V28.9163C47.3127 24.2174 43.6216 20.3947 39.0851 20.3947H29.3253V16.7537C31.5397 16.1455 33.1766 14.0529 33.1766 11.5712C33.1766 8.61453 30.8545 6.20956 27.9999 6.20956C25.1455 6.20956 22.823 8.61453 22.823 11.5712C22.823 14.0529 24.46 16.1456 26.6742 16.7537V20.3947H16.9145C12.3778 20.3947 8.6868 24.2175 8.6868 28.9163V29.5114C5.4738 30.1545 3.03955 33.0893 3.03955 36.6016C3.03955 40.1185 5.47898 43.0552 8.69688 43.6944C8.91157 48.1961 12.5154 51.7905 16.9145 51.7905H39.0851C43.4841 51.7905 47.0878 48.1961 47.3026 43.6944C50.5206 43.0552 52.9601 40.1185 52.9601 36.6016C52.9601 33.0892 50.5259 30.1545 47.3127 29.5114ZM8.6868 40.8613C6.95059 40.2804 5.69101 38.591 5.69101 36.6016C5.69101 34.6126 6.95059 32.9233 8.6868 32.3422V40.8613ZM25.4743 11.5712C25.4743 10.1289 26.6072 8.9555 27.9998 8.9555C29.3923 8.9555 30.5253 10.129 30.5253 11.5712C30.5253 13.0133 29.3923 14.1868 27.9998 14.1868C26.6072 14.1868 25.4743 13.0133 25.4743 11.5712ZM44.6616 43.269C44.6616 46.4537 42.1598 49.0444 39.0851 49.0444H16.9145C13.8396 49.0444 11.3381 46.4537 11.3381 43.269V28.9163C11.3381 25.7317 13.8396 23.1409 16.9145 23.1409H39.0851C42.1599 23.1409 44.6616 25.7317 44.6616 28.9163V43.269ZM47.3127 40.8613V32.3423C49.0488 32.9233 50.3086 34.6127 50.3086 36.6016C50.3086 38.5909 49.0488 40.2804 47.3127 40.8613Z" fill="#0070AD"/>
<path id="Vector_2" d="M37.6684 29.0443C35.5119 29.0443 33.7578 30.8614 33.7578 33.0945C33.7578 35.328 35.5121 37.1448 37.6684 37.1448C39.8246 37.1448 41.5791 35.3278 41.5791 33.0945C41.5791 30.8615 39.8246 29.0443 37.6684 29.0443ZM37.6684 34.3988C36.974 34.3988 36.4091 33.8141 36.4091 33.0947C36.4091 32.3755 36.974 31.7902 37.6684 31.7902C38.3628 31.7902 38.9278 32.3755 38.9278 33.0947C38.9278 33.8139 38.3628 34.3988 37.6684 34.3988Z" fill="#0070AD"/>
<path id="Vector_3" d="M18.3315 29.0443C16.175 29.0443 14.4209 30.8614 14.4209 33.0945C14.4209 35.328 16.1751 37.1448 18.3315 37.1448C20.4877 37.1448 22.2421 35.3278 22.2421 33.0945C22.2421 30.8615 20.4877 29.0443 18.3315 29.0443ZM18.3315 34.3988C17.6371 34.3988 17.0721 33.8141 17.0721 33.0947C17.0721 32.3755 17.6371 31.7902 18.3315 31.7902C19.0258 31.7902 19.5909 32.3755 19.5909 33.0947C19.5909 33.8139 19.0258 34.3988 18.3315 34.3988Z" fill="#0070AD"/>
<path id="Vector_4" d="M31.6124 41.4135H24.3877C23.6555 41.4135 23.062 42.0282 23.062 42.7862C23.062 43.5447 23.6555 44.1592 24.3877 44.1592H31.6125C32.3445 44.1592 32.9381 43.5445 32.9381 42.7862C32.938 42.0281 32.3445 41.4135 31.6124 41.4135Z" fill="#0070AD"/>
</g>
</svg>
